<svg xmlns="http://www.w3.org/2000/svg" xmlns:xlink="http://www.w3.org/1999/xlink" width="300" zoomAndPan="magnify" viewBox="0 0 224.87999 44.999999" height="60" preserveAspectRatio="xMidYMid meet" version="1.0"><defs><g/><clipPath id="1668a111fe"><path d="M 4 4 L 28 4 L 28 28 L 4 28 Z M 4 4 " clip-rule="nonzero"/></clipPath><clipPath id="55e58c0f6c"><path d="M 22.371094 4.601562 L 27.066406 9.296875 L 9.1875 27.171875 L 4.492188 22.476562 Z M 22.371094 4.601562 " clip-rule="nonzero"/></clipPath><clipPath id="441f9bdca5"><path d="M 0.316406 0.570312 L 23.105469 0.570312 L 23.105469 23.355469 L 0.316406 23.355469 Z M 0.316406 0.570312 " clip-rule="nonzero"/></clipPath><clipPath id="31c6ecf61b"><path d="M 18.371094 0.601562 L 23.066406 5.296875 L 5.1875 23.171875 L 0.492188 18.476562 Z M 18.371094 0.601562 " clip-rule="nonzero"/></clipPath><clipPath id="5984d6c30c"><rect x="0" width="24" y="0" height="24"/></clipPath><clipPath id="b24199d798"><path d="M 17 11 L 33 11 L 33 27 L 17 27 Z M 17 11 " clip-rule="nonzero"/></clipPath><clipPath id="b099687456"><path d="M 28.804688 11.324219 L 32.210938 14.730469 L 20.835938 26.101562 L 17.433594 22.695312 Z M 28.804688 11.324219 " clip-rule="nonzero"/></clipPath><clipPath id="37916701dd"><path d="M 0.269531 0.285156 L 15.382812 0.285156 L 15.382812 15.15625 L 0.269531 15.15625 Z M 0.269531 0.285156 " clip-rule="nonzero"/></clipPath><clipPath id="868d872d10"><path d="M 11.804688 0.324219 L 15.210938 3.730469 L 3.835938 15.101562 L 0.433594 11.695312 Z M 11.804688 0.324219 " clip-rule="nonzero"/></clipPath><clipPath id="aae0fd6f96"><rect x="0" width="16" y="0" height="16"/></clipPath><clipPath id="22b0185e66"><path d="M 25 11 L 41 11 L 41 27 L 25 27 Z M 25 11 " clip-rule="nonzero"/></clipPath><clipPath id="5c7c9ccacd"><path d="M 25.390625 14.726562 L 28.796875 11.324219 L 40.167969 22.695312 L 36.765625 26.101562 Z M 25.390625 14.726562 " clip-rule="nonzero"/></clipPath><clipPath id="d49b9464bd"><path d="M 0.1875 0.285156 L 15.296875 0.285156 L 15.296875 15.15625 L 0.1875 15.15625 Z M 0.1875 0.285156 " clip-rule="nonzero"/></clipPath><clipPath id="c07ab8a282"><path d="M 0.390625 3.726562 L 3.796875 0.324219 L 15.167969 11.695312 L 11.765625 15.101562 Z M 0.390625 3.726562 " clip-rule="nonzero"/></clipPath><clipPath id="0b7bc25488"><rect x="0" width="16" y="0" height="16"/></clipPath><clipPath id="be4c7a3bb0"><path d="M 22 15 L 32 15 L 32 25 L 22 25 Z M 22 15 " clip-rule="nonzero"/></clipPath><clipPath id="18fc0935b5"><path d="M 28.632812 15.800781 L 31.167969 18.332031 L 25.203125 24.296875 L 22.667969 21.761719 Z M 28.632812 15.800781 " clip-rule="nonzero"/></clipPath><clipPath id="94381d6f84"><path d="M 0.546875 0.605469 L 9.183594 0.605469 L 9.183594 9.480469 L 0.546875 9.480469 Z M 0.546875 0.605469 " clip-rule="nonzero"/></clipPath><clipPath id="f817b466be"><path d="M 6.632812 0.800781 L 9.167969 3.332031 L 3.203125 9.296875 L 0.667969 6.761719 Z M 6.632812 0.800781 " clip-rule="nonzero"/></clipPath><clipPath id="1bc80bf2ff"><rect x="0" width="10" y="0" height="10"/></clipPath><clipPath id="105c1ab42e"><path d="M 26 15 L 36 15 L 36 25 L 26 25 Z M 26 15 " clip-rule="nonzero"/></clipPath><clipPath id="1b8d8a0bac"><path d="M 26.433594 18.179688 L 29.101562 15.511719 L 35.066406 21.476562 L 32.398438 24.144531 Z M 26.433594 18.179688 " clip-rule="nonzero"/></clipPath><clipPath id="b0f019c817"><path d="M 0.386719 0.363281 L 9.261719 0.363281 L 9.261719 9.238281 L 0.386719 9.238281 Z M 0.386719 0.363281 " clip-rule="nonzero"/></clipPath><clipPath id="5e3b59858b"><path d="M 0.433594 3.179688 L 3.101562 0.511719 L 9.066406 6.476562 L 6.398438 9.144531 Z M 0.433594 3.179688 " clip-rule="nonzero"/></clipPath><clipPath id="0360682973"><rect x="0" width="10" y="0" height="10"/></clipPath><clipPath id="bd1f648865"><path d="M 26 20 L 32 20 L 32 26 L 26 26 Z M 26 20 " clip-rule="nonzero"/></clipPath><clipPath id="87986ca3eb"><path d="M 28.96875 20.046875 L 31.421875 22.5 L 28.886719 25.035156 L 26.433594 22.578125 Z M 28.96875 20.046875 " clip-rule="nonzero"/></clipPath><clipPath id="318fa0ea49"><path d="M 0.386719 0 L 5.421875 0 L 5.421875 5.199219 L 0.386719 5.199219 Z M 0.386719 0 " clip-rule="nonzero"/></clipPath><clipPath id="c306df605c"><path d="M 2.96875 0.046875 L 5.421875 2.5 L 2.886719 5.035156 L 0.433594 2.578125 Z M 2.96875 0.046875 " clip-rule="nonzero"/></clipPath><clipPath id="af80324e3c"><rect x="0" width="6" y="0" height="6"/></clipPath><clipPath id="2ebb0f335f"><path d="M 25 14 L 30 14 L 30 19 L 25 19 Z M 25 14 " clip-rule="nonzero"/></clipPath><clipPath id="3e57e12cfd"><path d="M 28.609375 14.347656 L 29.910156 15.582031 L 27.238281 18.398438 L 25.941406 17.164062 Z M 28.609375 14.347656 " clip-rule="nonzero"/></clipPath><clipPath id="39f7572af5"><path d="M 0.90625 0.164062 L 4.984375 0.164062 L 4.984375 4.480469 L 0.90625 4.480469 Z M 0.90625 0.164062 " clip-rule="nonzero"/></clipPath><clipPath id="22263a4fc4"><path d="M 3.609375 0.347656 L 4.910156 1.582031 L 2.238281 4.398438 L 0.941406 3.164062 Z M 3.609375 0.347656 " clip-rule="nonzero"/></clipPath><clipPath id="6a204cdd46"><rect x="0" width="5" y="0" height="5"/></clipPath><clipPath id="270b0ba90f"><path d="M 27 14 L 32 14 L 32 19 L 27 19 Z M 27 14 " clip-rule="nonzero"/></clipPath><clipPath id="152733d9e2"><path d="M 31.410156 16.988281 L 30.101562 18.394531 L 27.261719 15.753906 L 28.566406 14.347656 Z M 31.410156 16.988281 " clip-rule="nonzero"/></clipPath><clipPath id="a3e145e535"><path d="M 0.105469 0.164062 L 4.421875 0.164062 L 4.421875 4.480469 L 0.105469 4.480469 Z M 0.105469 0.164062 " clip-rule="nonzero"/></clipPath><clipPath id="a36722e42a"><path d="M 4.410156 2.988281 L 3.101562 4.394531 L 0.261719 1.753906 L 1.566406 0.347656 Z M 4.410156 2.988281 " clip-rule="nonzero"/></clipPath><clipPath id="6fc00ff782"><rect x="0" width="5" y="0" height="5"/></clipPath><clipPath id="bc8e322576"><path d="M 4 17 L 28 17 L 28 41 L 4 41 Z M 4 17 " clip-rule="nonzero"/></clipPath><clipPath id="de5a09f395"><path d="M 27.058594 35.941406 L 22.515625 40.488281 L 4.488281 22.460938 L 9.03125 17.914062 Z M 27.058594 35.941406 " clip-rule="nonzero"/></clipPath><clipPath id="7a030a82ba"><path d="M 0.316406 0.761719 L 23.105469 0.761719 L 23.105469 23.550781 L 0.316406 23.550781 Z M 0.316406 0.761719 " clip-rule="nonzero"/></clipPath><clipPath id="e3f60b90ea"><path d="M 23.058594 18.941406 L 18.515625 23.488281 L 0.488281 5.460938 L 5.03125 0.914062 Z M 23.058594 18.941406 " clip-rule="nonzero"/></clipPath><clipPath id="4b4847d652"><rect x="0" width="24" y="0" height="24"/></clipPath><clipPath id="2215b027ee"><path d="M 30 4 L 53 4 L 53 28 L 30 28 Z M 30 4 " clip-rule="nonzero"/></clipPath><clipPath id="7ebb92670f"><path d="M 52.898438 22.386719 L 48.203125 27.078125 L 30.324219 9.203125 L 35.019531 4.507812 Z M 52.898438 22.386719 " clip-rule="nonzero"/></clipPath><clipPath id="5db1f2f670"><path d="M 0.222656 0.328125 L 23 0.328125 L 23 23.117188 L 0.222656 23.117188 Z M 0.222656 0.328125 " clip-rule="nonzero"/></clipPath><clipPath id="a4d82f62d0"><path d="M 22.898438 18.386719 L 18.203125 23.078125 L 0.324219 5.203125 L 5.019531 0.507812 Z M 22.898438 18.386719 " clip-rule="nonzero"/></clipPath><clipPath id="0e40cd0ae5"><rect x="0" width="23" y="0" height="24"/></clipPath><clipPath id="3a0f7a8500"><path d="M 30 17 L 53 17 L 53 41 L 30 41 Z M 30 17 " clip-rule="nonzero"/></clipPath><clipPath id="de63981494"><path d="M 35.023438 40.332031 L 30.332031 35.636719 L 48.207031 17.761719 L 52.902344 22.453125 Z M 35.023438 40.332031 " clip-rule="nonzero"/></clipPath><clipPath id="3bafdc4477"><path d="M 0.222656 0.523438 L 23 0.523438 L 23 23.550781 L 0.222656 23.550781 Z M 0.222656 0.523438 " clip-rule="nonzero"/></clipPath><clipPath id="b4f169b6ec"><path d="M 5.023438 23.332031 L 0.332031 18.636719 L 18.207031 0.761719 L 22.902344 5.453125 Z M 5.023438 23.332031 " clip-rule="nonzero"/></clipPath><clipPath id="ff0090b775"><rect x="0" width="23" y="0" height="24"/></clipPath><clipPath id="b1588fb163"><rect x="0" width="164" y="0" height="21"/></clipPath></defs><g clip-path="url(#1668a111fe)"><g clip-path="url(#55e58c0f6c)"><g transform="matrix(1, 0, 0, 1, 4, 4)"><g clip-path="url(#5984d6c30c)"><g clip-path="url(#441f9bdca5)"><g clip-path="url(#31c6ecf61b)"><path fill="#ffffff" d="M 18.371094 0.601562 L 23.066406 5.296875 L 5.183594 23.175781 L 0.488281 18.480469 Z M 18.371094 0.601562 " fill-opacity="1" fill-rule="nonzero"/></g></g></g></g></g></g><g clip-path="url(#b24199d798)"><g clip-path="url(#b099687456)"><g transform="matrix(1, 0, 0, 1, 17, 11)"><g clip-path="url(#aae0fd6f96)"><g clip-path="url(#37916701dd)"><g clip-path="url(#868d872d10)"><path fill="#ffffff" d="M 11.804688 0.324219 L 15.210938 3.730469 L 3.839844 15.101562 L 0.433594 11.695312 Z M 11.804688 0.324219 " fill-opacity="1" fill-rule="nonzero"/></g></g></g></g></g></g><g clip-path="url(#22b0185e66)"><g clip-path="url(#5c7c9ccacd)"><g transform="matrix(1, 0, 0, 1, 25, 11)"><g clip-path="url(#0b7bc25488)"><g clip-path="url(#d49b9464bd)"><g clip-path="url(#c07ab8a282)"><path fill="#ffffff" d="M 0.390625 3.726562 L 3.796875 0.324219 L 15.167969 11.695312 L 11.761719 15.097656 Z M 0.390625 3.726562 " fill-opacity="1" fill-rule="nonzero"/></g></g></g></g></g></g><g clip-path="url(#be4c7a3bb0)"><g clip-path="url(#18fc0935b5)"><g transform="matrix(1, 0, 0, 1, 22, 15)"><g clip-path="url(#1bc80bf2ff)"><g clip-path="url(#94381d6f84)"><g clip-path="url(#f817b466be)"><path fill="#ffffff" d="M 6.632812 0.800781 L 9.167969 3.332031 L 3.199219 9.300781 L 0.664062 6.769531 Z M 6.632812 0.800781 " fill-opacity="1" fill-rule="nonzero"/></g></g></g></g></g></g><g clip-path="url(#105c1ab42e)"><g clip-path="url(#1b8d8a0bac)"><g transform="matrix(1, 0, 0, 1, 26, 15)"><g clip-path="url(#0360682973)"><g clip-path="url(#b0f019c817)"><g clip-path="url(#5e3b59858b)"><path fill="#ffffff" d="M 0.433594 3.179688 L 3.101562 0.511719 L 9.0625 6.476562 L 6.394531 9.144531 Z M 0.433594 3.179688 " fill-opacity="1" fill-rule="nonzero"/></g></g></g></g></g></g><g clip-path="url(#bd1f648865)"><g clip-path="url(#87986ca3eb)"><g transform="matrix(1, 0, 0, 1, 26, 20)"><g clip-path="url(#af80324e3c)"><g clip-path="url(#318fa0ea49)"><g clip-path="url(#c306df605c)"><path fill="#ffffff" d="M 2.96875 0.046875 L 5.421875 2.5 L 2.890625 5.027344 L 0.4375 2.574219 Z M 2.96875 0.046875 " fill-opacity="1" fill-rule="nonzero"/></g></g></g></g></g></g><g clip-path="url(#2ebb0f335f)"><g clip-path="url(#3e57e12cfd)"><g transform="matrix(1, 0, 0, 1, 25, 14)"><g clip-path="url(#6a204cdd46)"><g clip-path="url(#39f7572af5)"><g clip-path="url(#22263a4fc4)"><path fill="#0f172a" d="M 3.609375 0.347656 L 4.910156 1.582031 L 2.238281 4.398438 L 0.9375 3.167969 Z M 3.609375 0.347656 " fill-opacity="1" fill-rule="nonzero"/></g></g></g></g></g></g><g clip-path="url(#270b0ba90f)"><g clip-path="url(#152733d9e2)"><g transform="matrix(1, 0, 0, 1, 27, 14)"><g clip-path="url(#6fc00ff782)"><g clip-path="url(#a3e145e535)"><g clip-path="url(#a36722e42a)"><path fill="#0f172a" d="M 4.410156 2.988281 L 3.101562 4.394531 L 0.257812 1.75 L 1.566406 0.34375 Z M 4.410156 2.988281 " fill-opacity="1" fill-rule="nonzero"/></g></g></g></g></g></g><g clip-path="url(#bc8e322576)"><g clip-path="url(#de5a09f395)"><g transform="matrix(1, 0, 0, 1, 4, 17)"><g clip-path="url(#4b4847d652)"><g clip-path="url(#7a030a82ba)"><g clip-path="url(#e3f60b90ea)"><path fill="#ffffff" d="M 23.058594 18.941406 L 18.515625 23.488281 L 0.492188 5.464844 L 5.039062 0.921875 Z M 23.058594 18.941406 " fill-opacity="1" fill-rule="nonzero"/></g></g></g></g></g></g><g clip-path="url(#2215b027ee)"><g clip-path="url(#7ebb92670f)"><g transform="matrix(1, 0, 0, 1, 30, 4)"><g clip-path="url(#0e40cd0ae5)"><g clip-path="url(#5db1f2f670)"><g clip-path="url(#a4d82f62d0)"><path fill="#ffffff" d="M 22.898438 18.386719 L 18.203125 23.078125 L 0.320312 5.199219 L 5.015625 0.503906 Z M 22.898438 18.386719 " fill-opacity="1" fill-rule="nonzero"/></g></g></g></g></g></g><g clip-path="url(#3a0f7a8500)"><g clip-path="url(#de63981494)"><g transform="matrix(1, 0, 0, 1, 30, 17)"><g clip-path="url(#ff0090b775)"><g clip-path="url(#3bafdc4477)"><g clip-path="url(#b4f169b6ec)"><path fill="#ffffff" d="M 5.023438 23.332031 L 0.332031 18.636719 L 18.210938 0.753906 L 22.90625 5.449219 Z M 5.023438 23.332031 " fill-opacity="1" fill-rule="nonzero"/></g></g></g></g></g></g><g transform="matrix(1, 0, 0, 1, 55, 11)"><g clip-path="url(#b1588fb163)"><g fill="#ffffff" fill-opacity="1"><g transform="translate(0.644025, 15.493732)"><g><path d="M 13.839844 -3.058594 C 13.839844 -3.058594 12.382812 -2.101562 9.539062 -2.101562 C 7 -2.101562 4.679688 -4.179688 4.679688 -7 C 4.679688 -9.878906 6.421875 -11.960938 9.300781 -11.960938 C 11.160156 -11.960938 12.761719 -10.941406 12.839844 -9.300781 L 15.082031 -9.300781 L 15.0625 -14.0625 L 12.820312 -14.0625 L 12.980469 -12.601562 C 12.902344 -12.882812 12.320312 -14.300781 8.878906 -14.300781 C 5.140625 -14.300781 2 -11.101562 2 -7.039062 C 2 -2.699219 5.359375 0.238281 9.902344 0.238281 C 12.820312 0.238281 14.601562 -0.941406 14.601562 -0.941406 Z M 13.78125 -9.902344 C 13.78125 -10.441406 12.339844 -12.960938 9.121094 -12.960938 C 5.699219 -12.960938 3.601562 -10.480469 3.601562 -7 C 3.601562 -3.582031 6.242188 -1.101562 9.878906 -1.101562 C 12.199219 -1.101562 13.542969 -1.820312 13.542969 -1.820312 L 13.660156 -1.421875 C 13.660156 -1.421875 12.320312 -0.699219 9.878906 -0.699219 C 6 -0.699219 3.199219 -3.339844 3.199219 -7 C 3.199219 -10.722656 5.460938 -13.359375 9.121094 -13.359375 C 12.679688 -13.359375 13.78125 -10.699219 13.78125 -10.699219 L 13.761719 -13.242188 L 14.160156 -13.242188 L 14.179688 -9.902344 Z M 13.78125 -9.902344 "/></g></g></g><g fill="#ffffff" fill-opacity="1"><g transform="translate(17.683502, 15.493732)"><g><path d="M 2 -7.039062 C 2 -2.878906 5.199219 0.21875 9.5 0.21875 C 13.800781 0.21875 17.019531 -2.898438 17.019531 -7.039062 C 17.019531 -11.242188 13.859375 -14.300781 9.5 -14.300781 C 5.28125 -14.300781 2 -11.101562 2 -7.039062 Z M 4.679688 -7 C 4.679688 -9.878906 6.742188 -12.0625 9.519531 -12.0625 C 12.339844 -12.0625 14.359375 -9.878906 14.359375 -7 C 14.359375 -4.140625 12.242188 -1.960938 9.519531 -1.960938 C 6.800781 -1.960938 4.679688 -4.179688 4.679688 -7 Z M 3.539062 -7 C 3.539062 -3.601562 6.242188 -1 9.539062 -1 C 12.839844 -1 15.542969 -3.539062 15.542969 -7 C 15.542969 -10.480469 12.941406 -13.019531 9.539062 -13.019531 C 6.179688 -13.019531 3.539062 -10.480469 3.539062 -7 Z M 3.140625 -7 C 3.140625 -10.722656 5.941406 -13.421875 9.539062 -13.421875 C 13.179688 -13.421875 15.941406 -10.722656 15.941406 -7 C 15.941406 -3.300781 13.042969 -0.601562 9.539062 -0.601562 C 6.039062 -0.601562 3.140625 -3.359375 3.140625 -7 Z M 3.140625 -7 "/></g></g></g><g fill="#ffffff" fill-opacity="1"><g transform="translate(36.702915, 15.493732)"><g><path d="M 2.320312 -11.78125 L 3.859375 -11.78125 L 3.859375 -2.28125 L 2.320312 -2.28125 L 2.320312 0 L 9.160156 0 C 13.460938 0 16.679688 -3.019531 16.679688 -7.039062 C 16.679688 -11.121094 13.519531 -14.0625 9.160156 -14.0625 L 2.320312 -14.0625 Z M 3.28125 -1.300781 L 4.820312 -1.300781 L 4.820312 -12.761719 L 3.28125 -12.761719 L 3.28125 -13.160156 L 8.859375 -13.160156 C 12.761719 -13.160156 15.519531 -10.5625 15.519531 -7 C 15.519531 -3.441406 12.621094 -0.898438 8.859375 -0.898438 L 3.28125 -0.898438 Z M 5.21875 -12.761719 L 5.21875 -1.300781 L 8.859375 -1.300781 C 12.382812 -1.300781 15.121094 -3.679688 15.121094 -7 C 15.121094 -10.320312 12.519531 -12.761719 8.859375 -12.761719 Z M 9.179688 -11.78125 C 12 -11.78125 14.019531 -9.761719 14.019531 -7 C 14.019531 -4.261719 11.902344 -2.28125 9.179688 -2.28125 L 6.359375 -2.28125 L 6.359375 -11.78125 Z M 9.179688 -11.78125 "/></g></g></g><g fill="#ffffff" fill-opacity="1"><g transform="translate(55.402341, 15.493732)"><g><path d="M 13 -10.222656 L 13 -14.0625 L 2.320312 -14.0625 L 2.320312 -11.78125 L 3.859375 -11.78125 L 3.859375 -2.28125 L 2.320312 -2.28125 L 2.320312 0 L 13 0 L 13 -3.839844 L 10.878906 -3.839844 L 10.878906 -2.28125 L 6.339844 -2.28125 L 6.339844 -5.640625 L 9.742188 -5.640625 L 9.742188 -7.839844 L 6.339844 -7.839844 L 6.339844 -11.78125 L 10.878906 -11.78125 L 10.878906 -10.222656 Z M 12.101562 -2.859375 L 12.101562 -0.898438 L 3.199219 -0.898438 L 3.199219 -1.300781 L 4.761719 -1.300781 L 4.761719 -12.722656 L 3.199219 -12.722656 L 3.199219 -13.121094 L 12.101562 -13.121094 L 12.101562 -11.160156 L 11.699219 -11.160156 L 11.699219 -12.722656 L 5.160156 -12.722656 L 5.160156 -6.859375 L 8.820312 -6.859375 L 8.820312 -6.460938 L 5.160156 -6.460938 L 5.160156 -1.300781 L 11.699219 -1.300781 L 11.699219 -2.859375 Z M 12.101562 -2.859375 "/></g></g></g><g fill="#ffffff" fill-opacity="1"><g transform="translate(70.661873, 15.493732)"><g><path d="M 12.101562 0 L 12.101562 -3.742188 L 9.980469 -3.742188 L 9.980469 -2.28125 L 6.101562 -2.28125 C 6.101562 -2.28125 7.960938 -3.660156 8.742188 -4.519531 C 10.601562 -6.539062 11.0625 -8.101562 11.0625 -9.839844 C 11.0625 -12.359375 9.300781 -14.300781 5.878906 -14.300781 C 3.121094 -14.300781 1.800781 -13.101562 1.800781 -13.101562 L 2.679688 -11.0625 C 2.679688 -11.0625 3.761719 -12.0625 5.800781 -12.0625 C 7.480469 -12.0625 8.402344 -11 8.402344 -9.761719 C 8.402344 -8.539062 8.082031 -7.339844 6.480469 -5.460938 C 4.878906 -3.519531 1.898438 -1.300781 1.898438 -1.300781 L 1.898438 0 Z M 2.839844 -0.921875 C 3 -1.039062 6.019531 -3.5 7.199219 -4.859375 C 8.980469 -6.878906 9.582031 -8.359375 9.582031 -10.0625 C 9.582031 -11.742188 8.261719 -13.082031 5.800781 -13.082031 C 4.242188 -13.082031 3.242188 -12.402344 3.242188 -12.402344 L 3.058594 -12.761719 C 3.058594 -12.761719 4.121094 -13.480469 5.800781 -13.480469 C 8.5 -13.480469 9.980469 -11.980469 9.980469 -10.0625 C 9.980469 -8.28125 9.359375 -6.699219 7.519531 -4.621094 C 6.558594 -3.539062 4 -1.320312 4 -1.320312 L 10.839844 -1.320312 L 10.839844 -2.820312 L 11.242188 -2.820312 L 11.242188 -0.921875 Z M 2.839844 -0.921875 "/></g></g></g><g fill="#ffffff" fill-opacity="1"><g transform="translate(84.741441, 15.493732)"><g><path d="M 13.839844 -3.058594 C 13.839844 -3.058594 12.382812 -2.101562 9.539062 -2.101562 C 7 -2.101562 4.679688 -4.179688 4.679688 -7 C 4.679688 -9.878906 6.421875 -11.960938 9.300781 -11.960938 C 11.160156 -11.960938 12.761719 -10.941406 12.839844 -9.300781 L 15.082031 -9.300781 L 15.0625 -14.0625 L 12.820312 -14.0625 L 12.980469 -12.601562 C 12.902344 -12.882812 12.320312 -14.300781 8.878906 -14.300781 C 5.140625 -14.300781 2 -11.101562 2 -7.039062 C 2 -2.699219 5.359375 0.238281 9.902344 0.238281 C 12.820312 0.238281 14.601562 -0.941406 14.601562 -0.941406 Z M 13.78125 -9.902344 C 13.78125 -10.441406 12.339844 -12.960938 9.121094 -12.960938 C 5.699219 -12.960938 3.601562 -10.480469 3.601562 -7 C 3.601562 -3.582031 6.242188 -1.101562 9.878906 -1.101562 C 12.199219 -1.101562 13.542969 -1.820312 13.542969 -1.820312 L 13.660156 -1.421875 C 13.660156 -1.421875 12.320312 -0.699219 9.878906 -0.699219 C 6 -0.699219 3.199219 -3.339844 3.199219 -7 C 3.199219 -10.722656 5.460938 -13.359375 9.121094 -13.359375 C 12.679688 -13.359375 13.78125 -10.699219 13.78125 -10.699219 L 13.761719 -13.242188 L 14.160156 -13.242188 L 14.179688 -9.902344 Z M 13.78125 -9.902344 "/></g></g></g><g fill="#ffffff" fill-opacity="1"><g transform="translate(101.780912, 15.493732)"><g><path d="M 2.320312 -11.78125 L 3.859375 -11.78125 L 3.859375 -2.28125 L 2.320312 -2.28125 L 2.320312 0 L 7.859375 0 L 7.859375 -2.28125 L 6.339844 -2.28125 L 6.339844 -4.082031 L 7.878906 -4.082031 C 8.140625 -4.082031 8.402344 -4.082031 8.640625 -4.101562 L 11.640625 0 L 14.601562 0 L 14.601562 -2.28125 L 12.800781 -2.28125 L 11.140625 -4.480469 C 12.941406 -5.179688 13.980469 -6.878906 13.980469 -9.0625 C 13.980469 -12 12.101562 -14.0625 8.359375 -14.0625 L 2.320312 -14.0625 Z M 12.242188 -0.898438 L 9.101562 -4.960938 C 8.71875 -4.898438 8.300781 -4.878906 7.839844 -4.878906 L 5.21875 -4.878906 L 5.21875 -1.320312 L 6.980469 -1.320312 L 6.980469 -0.921875 L 3.261719 -0.921875 L 3.261719 -1.320312 L 4.820312 -1.320312 L 4.820312 -12.761719 L 3.261719 -12.761719 L 3.261719 -13.160156 L 8.242188 -13.160156 C 11.359375 -13.101562 12.839844 -11.519531 12.839844 -9.0625 C 12.839844 -7.019531 11.859375 -5.519531 9.5625 -5.039062 L 12.421875 -1.300781 L 13.800781 -1.300781 L 13.800781 -0.898438 Z M 7.839844 -5.28125 C 11.101562 -5.28125 12.441406 -6.820312 12.441406 -9.0625 C 12.441406 -11.300781 11.082031 -12.699219 8.242188 -12.761719 L 5.21875 -12.761719 L 5.21875 -5.28125 Z M 8.179688 -11.78125 C 10.519531 -11.78125 11.300781 -10.601562 11.300781 -9.0625 C 11.300781 -7.519531 10.5 -6.28125 8.179688 -6.28125 L 6.339844 -6.28125 L 6.339844 -11.78125 Z M 9.101562 -4.960938 L 9.101562 -4.980469 L 9.539062 -5.082031 L 9.5625 -5.039062 C 9.421875 -5 9.261719 -4.980469 9.101562 -4.960938 Z M 9.101562 -4.960938 "/></g></g></g><g fill="#ffffff" fill-opacity="1"><g transform="translate(118.360405, 15.493732)"><g><path d="M 13 -10.222656 L 13 -14.0625 L 2.320312 -14.0625 L 2.320312 -11.78125 L 3.859375 -11.78125 L 3.859375 -2.28125 L 2.320312 -2.28125 L 2.320312 0 L 13 0 L 13 -3.839844 L 10.878906 -3.839844 L 10.878906 -2.28125 L 6.339844 -2.28125 L 6.339844 -5.640625 L 9.742188 -5.640625 L 9.742188 -7.839844 L 6.339844 -7.839844 L 6.339844 -11.78125 L 10.878906 -11.78125 L 10.878906 -10.222656 Z M 12.101562 -2.859375 L 12.101562 -0.898438 L 3.199219 -0.898438 L 3.199219 -1.300781 L 4.761719 -1.300781 L 4.761719 -12.722656 L 3.199219 -12.722656 L 3.199219 -13.121094 L 12.101562 -13.121094 L 12.101562 -11.160156 L 11.699219 -11.160156 L 11.699219 -12.722656 L 5.160156 -12.722656 L 5.160156 -6.859375 L 8.820312 -6.859375 L 8.820312 -6.460938 L 5.160156 -6.460938 L 5.160156 -1.300781 L 11.699219 -1.300781 L 11.699219 -2.859375 Z M 12.101562 -2.859375 "/></g></g></g><g fill="#ffffff" fill-opacity="1"><g transform="translate(133.619938, 15.493732)"><g><path d="M 2.101562 -4.398438 L 2.121094 0 L 4.359375 0 L 4.179688 -1.160156 C 4.179688 -1.160156 4.859375 0.238281 7.601562 0.238281 C 10.039062 0.238281 11.941406 -1.300781 11.941406 -3.800781 C 11.941406 -5.640625 11.039062 -6.859375 7.902344 -8.101562 C 5.921875 -8.878906 5.160156 -9.5 5.160156 -10.480469 C 5.160156 -11.339844 5.71875 -12.082031 7.121094 -12.082031 C 8.242188 -12.082031 9.179688 -11.761719 9.28125 -10.582031 L 9.28125 -9.921875 L 11.519531 -9.921875 L 11.5 -14.0625 L 9.261719 -14.0625 L 9.441406 -13.160156 C 9.378906 -13.261719 8.800781 -14.300781 6.980469 -14.300781 C 4.21875 -14.300781 2.660156 -12.421875 2.660156 -10.421875 C 2.660156 -8.660156 3.601562 -7.28125 6.339844 -6.242188 C 8.878906 -5.300781 9.402344 -4.742188 9.402344 -3.800781 C 9.402344 -2.898438 8.679688 -2.082031 7.082031 -2.082031 C 5.78125 -2.082031 4.339844 -2.539062 4.339844 -4.140625 L 4.339844 -4.398438 Z M 10.660156 -13.222656 L 10.660156 -10.679688 L 10.261719 -10.679688 C 10.261719 -10.921875 9.5625 -12.941406 6.902344 -12.941406 C 5.140625 -12.941406 4.179688 -11.679688 4.179688 -10.261719 C 4.179688 -8.839844 5.058594 -7.960938 7.082031 -7.320312 C 10.28125 -6.300781 10.820312 -5.242188 10.820312 -3.640625 C 10.820312 -2.140625 9.859375 -0.71875 7.5 -0.71875 C 5.101562 -0.71875 3.480469 -2.140625 3.398438 -2.539062 L 3.398438 -0.820312 L 3 -0.820312 L 3 -3.179688 L 3.398438 -3.179688 C 3.398438 -2.761719 4.839844 -1.121094 7.5 -1.121094 C 9.582031 -1.121094 10.421875 -2.339844 10.421875 -3.640625 C 10.421875 -5.019531 9.878906 -5.980469 6.960938 -6.921875 C 4.78125 -7.621094 3.78125 -8.660156 3.78125 -10.261719 C 3.78125 -11.882812 4.878906 -13.339844 6.902344 -13.339844 C 9.140625 -13.339844 10.199219 -11.839844 10.261719 -11.402344 L 10.261719 -13.222656 Z M 10.660156 -13.222656 "/></g></g></g><g fill="#ffffff" fill-opacity="1"><g transform="translate(147.699505, 15.493732)"><g><path d="M 4.742188 0 L 10.300781 0 L 10.300781 -2.28125 L 8.761719 -2.28125 L 8.761719 -11.78125 L 11.261719 -11.78125 L 11.261719 -10.222656 L 13.382812 -10.222656 L 13.382812 -14.0625 L 1.558594 -14.0625 L 1.558594 -10.222656 L 3.679688 -10.222656 L 3.679688 -11.78125 L 6.261719 -11.78125 L 6.261719 -2.28125 L 4.742188 -2.28125 Z M 12.441406 -13.121094 L 12.441406 -11.160156 L 12.039062 -11.160156 L 12.039062 -12.722656 L 7.71875 -12.722656 L 7.71875 -1.320312 L 9.28125 -1.320312 L 9.28125 -0.921875 L 5.761719 -0.921875 L 5.761719 -1.320312 L 7.320312 -1.320312 L 7.320312 -12.722656 L 2.898438 -12.722656 L 2.898438 -11.160156 L 2.5 -11.160156 L 2.5 -13.121094 Z M 12.441406 -13.121094 "/></g></g></g></g></g></svg>