<svg xmlns="http://www.w3.org/2000/svg" version="1.1" xmlns:xlink="http://www.w3.org/1999/xlink" width="1000" height="1000"><metadata><rdf:RDF xmlns:rdf="http://www.w3.org/1999/02/22-rdf-syntax-ns#" xmlns:dc="http://purl.org/dc/elements/1.1/"><rdf:Description><dc:creator>RealFaviconGenerator</dc:creator><dc:source>https://realfavicongenerator.net</dc:source></rdf:Description></rdf:RDF></metadata><style>
    #light-icon {
      display: inline;
    }
    #dark-icon {
      display: none;
    }

    @media (prefers-color-scheme: dark) {
      #light-icon {
        display: none;
      }
      #dark-icon {
        display: inline;
      }
    }
  </style><g id="light-icon"><svg xmlns="http://www.w3.org/2000/svg" version="1.1" xmlns:xlink="http://www.w3.org/1999/xlink" width="1000" height="1000"><g><g transform="matrix(1.953125,0,0,1.953125,0,0)"><svg xmlns="http://www.w3.org/2000/svg" version="1" xmlns:xlink="http://www.w3.org/1999/xlink" width="512" zoomAndPan="magnify" viewBox="0 0 384 383.999986" height="512" preserveAspectRatio="xMidYMid meet"><defs><clipPath id="090699e038"><path d="M 7 55 L 180 55 L 180 228 L 7 228 Z M 7 55 " clip-rule="nonzero"></path></clipPath><clipPath id="9760b9cb3f"><path d="M 143.820312 55.730469 L 179.558594 91.46875 L 43.480469 227.550781 L 7.742188 191.8125 Z M 143.820312 55.730469 " clip-rule="nonzero"></path></clipPath><clipPath id="a103182c88"><path d="M 0.679688 0.679688 L 172.761719 0.679688 L 172.761719 172.761719 L 0.679688 172.761719 Z M 0.679688 0.679688 " clip-rule="nonzero"></path></clipPath><clipPath id="da2a6925c3"><path d="M 136.820312 0.730469 L 172.558594 36.46875 L 36.480469 172.550781 L 0.742188 136.8125 Z M 136.820312 0.730469 " clip-rule="nonzero"></path></clipPath><clipPath id="39fffe9b73"><rect x="0" width="173" y="0" height="173"></rect></clipPath><clipPath id="a5fba97e4d"><path d="M 106 106 L 219 106 L 219 220 L 106 220 Z M 106 106 " clip-rule="nonzero"></path></clipPath><clipPath id="078cfa90e4"><path d="M 192.773438 106.929688 L 218.691406 132.847656 L 132.128906 219.410156 L 106.210938 193.492188 Z M 192.773438 106.929688 " clip-rule="nonzero"></path></clipPath><clipPath id="6a4a2557ec"><path d="M 0.078125 0.800781 L 112.878906 0.800781 L 112.878906 113.601562 L 0.078125 113.601562 Z M 0.078125 0.800781 " clip-rule="nonzero"></path></clipPath><clipPath id="e559d97a03"><path d="M 86.773438 0.929688 L 112.691406 26.847656 L 26.128906 113.410156 L 0.210938 87.492188 Z M 86.773438 0.929688 " clip-rule="nonzero"></path></clipPath><clipPath id="ee4287037b"><rect x="0" width="113" y="0" height="114"></rect></clipPath><clipPath id="c823af9698"><path d="M 166 106 L 280 106 L 280 220 L 166 220 Z M 166 106 " clip-rule="nonzero"></path></clipPath><clipPath id="afcf8ede41"><path d="M 166.792969 132.84375 L 192.710938 106.925781 L 279.273438 193.488281 L 253.355469 219.402344 Z M 166.792969 132.84375 " clip-rule="nonzero"></path></clipPath><clipPath id="9ef727cd19"><path d="M 0.558594 0.800781 L 113.359375 0.800781 L 113.359375 113.601562 L 0.558594 113.601562 Z M 0.558594 0.800781 " clip-rule="nonzero"></path></clipPath><clipPath id="fd387ef88d"><path d="M 0.792969 26.84375 L 26.710938 0.925781 L 113.273438 87.488281 L 87.355469 113.402344 Z M 0.792969 26.84375 " clip-rule="nonzero"></path></clipPath><clipPath id="9a12183b5c"><rect x="0" width="114" y="0" height="114"></rect></clipPath><clipPath id="390536ccc8"><path d="M 146 140 L 211 140 L 211 206 L 146 206 Z M 146 140 " clip-rule="nonzero"></path></clipPath><clipPath id="c0ef2da307"><path d="M 191.476562 140.96875 L 210.761719 160.253906 L 165.367188 205.652344 L 146.078125 186.363281 Z M 191.476562 140.96875 " clip-rule="nonzero"></path></clipPath><clipPath id="73895a4253"><path d="M 0 0.878906 L 64.960938 0.878906 L 64.960938 65.679688 L 0 65.679688 Z M 0 0.878906 " clip-rule="nonzero"></path></clipPath><clipPath id="1c4f135550"><path d="M 45.476562 0.96875 L 64.761719 20.253906 L 19.367188 65.652344 L 0.078125 46.363281 Z M 45.476562 0.96875 " clip-rule="nonzero"></path></clipPath><clipPath id="f7447ba2b8"><rect x="0" width="65" y="0" height="66"></rect></clipPath><clipPath id="0cf1539bcb"><path d="M 174 138 L 241 138 L 241 205 L 174 205 Z M 174 138 " clip-rule="nonzero"></path></clipPath><clipPath id="dff93a22a0"><path d="M 174.71875 159.128906 L 195.03125 138.816406 L 240.425781 184.214844 L 220.117188 204.523438 Z M 174.71875 159.128906 " clip-rule="nonzero"></path></clipPath><clipPath id="d4524501e8"><path d="M 0.71875 0.71875 L 66.480469 0.71875 L 66.480469 66.71875 L 0.71875 66.71875 Z M 0.71875 0.71875 " clip-rule="nonzero"></path></clipPath><clipPath id="1729d6ca75"><path d="M 0.71875 21.128906 L 21.03125 0.816406 L 66.425781 46.214844 L 46.117188 66.523438 Z M 0.71875 21.128906 " clip-rule="nonzero"></path></clipPath><clipPath id="2eb703ca31"><rect x="0" width="67" y="0" height="67"></rect></clipPath><clipPath id="dabf37b594"><path d="M 174 173 L 213 173 L 213 212 L 174 212 Z M 174 173 " clip-rule="nonzero"></path></clipPath><clipPath id="5a29a26885"><path d="M 194.011719 173.308594 L 212.6875 191.984375 L 193.390625 211.277344 L 174.71875 192.605469 Z M 194.011719 173.308594 " clip-rule="nonzero"></path></clipPath><clipPath id="be6f9f12e0"><path d="M 0.480469 0.28125 L 38.878906 0.28125 L 38.878906 38.441406 L 0.480469 38.441406 Z M 0.480469 0.28125 " clip-rule="nonzero"></path></clipPath><clipPath id="fde1098e6b"><path d="M 20.011719 0.308594 L 38.6875 18.984375 L 19.390625 38.277344 L 0.71875 19.605469 Z M 20.011719 0.308594 " clip-rule="nonzero"></path></clipPath><clipPath id="7d86c1bf7c"><rect x="0" width="39" y="0" height="39"></rect></clipPath><clipPath id="addb1e42b6"><path d="M 170 129 L 202 129 L 202 161 L 170 161 Z M 170 129 " clip-rule="nonzero"></path></clipPath><clipPath id="347e16a730"><path d="M 191.316406 129.929688 L 201.207031 139.3125 L 180.878906 160.75 L 170.984375 151.363281 Z M 191.316406 129.929688 " clip-rule="nonzero"></path></clipPath><clipPath id="3bbfd031f5"><path d="M 0.878906 0.839844 L 31.359375 0.839844 L 31.359375 31.800781 L 0.878906 31.800781 Z M 0.878906 0.839844 " clip-rule="nonzero"></path></clipPath><clipPath id="32a7487914"><path d="M 21.316406 0.929688 L 31.207031 10.3125 L 10.878906 31.75 L 0.984375 22.363281 Z M 21.316406 0.929688 " clip-rule="nonzero"></path></clipPath><clipPath id="4ce7ea8f4a"><rect x="0" width="32" y="0" height="32"></rect></clipPath><clipPath id="4a197798d1"><path d="M 181 129 L 213 129 L 213 161 L 181 161 Z M 181 129 " clip-rule="nonzero"></path></clipPath><clipPath id="ffcdb55a8b"><path d="M 212.683594 150.035156 L 202.734375 160.738281 L 181.097656 140.625 L 191.046875 129.921875 Z M 212.683594 150.035156 " clip-rule="nonzero"></path></clipPath><clipPath id="f45f642b26"><path d="M 0 0.839844 L 31.878906 0.839844 L 31.878906 31.800781 L 0 31.800781 Z M 0 0.839844 " clip-rule="nonzero"></path></clipPath><clipPath id="df82640cfc"><path d="M 31.683594 21.035156 L 21.734375 31.738281 L 0.0976562 11.625 L 10.046875 0.921875 Z M 31.683594 21.035156 " clip-rule="nonzero"></path></clipPath><clipPath id="a96a556dcf"><rect x="0" width="32" y="0" height="32"></rect></clipPath><clipPath id="24992f71c5"><path d="M 7 157 L 180 157 L 180 329 L 7 329 Z M 7 157 " clip-rule="nonzero"></path></clipPath><clipPath id="273ea86a40"><path d="M 179.558594 294.339844 L 144.960938 328.9375 L 7.742188 191.71875 L 42.339844 157.121094 Z M 179.558594 294.339844 " clip-rule="nonzero"></path></clipPath><clipPath id="0420471b82"><path d="M 0.679688 0 L 172.761719 0 L 172.761719 172 L 0.679688 172 Z M 0.679688 0 " clip-rule="nonzero"></path></clipPath><clipPath id="536d7caf7d"><path d="M 172.558594 137.339844 L 137.960938 171.9375 L 0.742188 34.71875 L 35.339844 0.121094 Z M 172.558594 137.339844 " clip-rule="nonzero"></path></clipPath><clipPath id="1442735263"><rect x="0" width="173" y="0" height="172"></rect></clipPath><clipPath id="b0dd684068"><path d="M 204 55 L 377 55 L 377 227 L 204 227 Z M 204 55 " clip-rule="nonzero"></path></clipPath><clipPath id="5717f14cd3"><path d="M 376.242188 191.128906 L 340.503906 226.867188 L 204.425781 90.789062 L 240.160156 55.050781 Z M 376.242188 191.128906 " clip-rule="nonzero"></path></clipPath><clipPath id="e869d6dd33"><path d="M 0.238281 0 L 172.320312 0 L 172.320312 172 L 0.238281 172 Z M 0.238281 0 " clip-rule="nonzero"></path></clipPath><clipPath id="13607339d4"><path d="M 172.242188 136.128906 L 136.503906 171.867188 L 0.425781 35.789062 L 36.160156 0.0507812 Z M 172.242188 136.128906 " clip-rule="nonzero"></path></clipPath><clipPath id="4f1c0310e8"><rect x="0" width="173" y="0" height="172"></rect></clipPath><clipPath id="844ffaa0fa"><path d="M 204 155 L 377 155 L 377 328 L 204 328 Z M 204 155 " clip-rule="nonzero"></path></clipPath><clipPath id="199cc729c1"><path d="M 240.171875 327.789062 L 204.433594 292.050781 L 340.511719 155.972656 L 376.25 191.710938 Z M 240.171875 327.789062 " clip-rule="nonzero"></path></clipPath><clipPath id="b335df3bb3"><path d="M 0.238281 0.761719 L 172.320312 0.761719 L 172.320312 172.839844 L 0.238281 172.839844 Z M 0.238281 0.761719 " clip-rule="nonzero"></path></clipPath><clipPath id="1070b6f8e0"><path d="M 36.171875 172.789062 L 0.433594 137.050781 L 136.511719 0.972656 L 172.25 36.710938 Z M 36.171875 172.789062 " clip-rule="nonzero"></path></clipPath><clipPath id="3118d36807"><rect x="0" width="173" y="0" height="173"></rect></clipPath></defs><g clip-path="url(#090699e038)"><g clip-path="url(#9760b9cb3f)"><g transform="matrix(1, 0, 0, 1, 7, 55)"><g clip-path="url(#39fffe9b73)"><g clip-path="url(#a103182c88)"><g clip-path="url(#da2a6925c3)"><path fill="#0f172a" d="M 136.820312 0.730469 L 172.558594 36.46875 L 36.449219 172.578125 L 0.710938 136.839844 Z M 136.820312 0.730469 " fill-opacity="1" fill-rule="nonzero"></path></g></g></g></g></g></g><g clip-path="url(#a5fba97e4d)"><g clip-path="url(#078cfa90e4)"><g transform="matrix(1, 0, 0, 1, 106, 106)"><g clip-path="url(#ee4287037b)"><g clip-path="url(#6a4a2557ec)"><g clip-path="url(#e559d97a03)"><path fill="#0f172a" d="M 86.773438 0.929688 L 112.691406 26.847656 L 26.132812 113.40625 L 0.214844 87.488281 Z M 86.773438 0.929688 " fill-opacity="1" fill-rule="nonzero"></path></g></g></g></g></g></g><g clip-path="url(#c823af9698)"><g clip-path="url(#afcf8ede41)"><g transform="matrix(1, 0, 0, 1, 166, 106)"><g clip-path="url(#9a12183b5c)"><g clip-path="url(#9ef727cd19)"><g clip-path="url(#fd387ef88d)"><path fill="#0f172a" d="M 0.792969 26.84375 L 26.710938 0.925781 L 113.269531 87.484375 L 87.351562 113.398438 Z M 0.792969 26.84375 " fill-opacity="1" fill-rule="nonzero"></path></g></g></g></g></g></g><g clip-path="url(#390536ccc8)"><g clip-path="url(#c0ef2da307)"><g transform="matrix(1, 0, 0, 1, 146, 140)"><g clip-path="url(#f7447ba2b8)"><g clip-path="url(#73895a4253)"><g clip-path="url(#1c4f135550)"><path fill="#0f172a" d="M 45.476562 0.96875 L 64.761719 20.253906 L 19.332031 65.6875 L 0.0429688 46.398438 Z M 45.476562 0.96875 " fill-opacity="1" fill-rule="nonzero"></path></g></g></g></g></g></g><g clip-path="url(#0cf1539bcb)"><g clip-path="url(#dff93a22a0)"><g transform="matrix(1, 0, 0, 1, 174, 138)"><g clip-path="url(#2eb703ca31)"><g clip-path="url(#d4524501e8)"><g clip-path="url(#1729d6ca75)"><path fill="#0f172a" d="M 0.71875 21.128906 L 21.03125 0.816406 L 66.410156 46.195312 L 46.097656 66.507812 Z M 0.71875 21.128906 " fill-opacity="1" fill-rule="nonzero"></path></g></g></g></g></g></g><g clip-path="url(#dabf37b594)"><g clip-path="url(#5a29a26885)"><g transform="matrix(1, 0, 0, 1, 174, 173)"><g clip-path="url(#7d86c1bf7c)"><g clip-path="url(#be6f9f12e0)"><g clip-path="url(#fde1098e6b)"><path fill="#0f172a" d="M 20.011719 0.308594 L 38.6875 18.984375 L 19.425781 38.246094 L 0.75 19.570312 Z M 20.011719 0.308594 " fill-opacity="1" fill-rule="nonzero"></path></g></g></g></g></g></g><g clip-path="url(#addb1e42b6)"><g clip-path="url(#347e16a730)"><g transform="matrix(1, 0, 0, 1, 170, 129)"><g clip-path="url(#4ce7ea8f4a)"><g clip-path="url(#3bbfd031f5)"><g clip-path="url(#32a7487914)"><path fill="#ffffff" d="M 21.316406 0.929688 L 31.207031 10.3125 L 10.863281 31.761719 L 0.972656 22.378906 Z M 21.316406 0.929688 " fill-opacity="1" fill-rule="nonzero"></path></g></g></g></g></g></g><g clip-path="url(#4a197798d1)"><g clip-path="url(#ffcdb55a8b)"><g transform="matrix(1, 0, 0, 1, 181, 129)"><g clip-path="url(#a96a556dcf)"><g clip-path="url(#f45f642b26)"><g clip-path="url(#df82640cfc)"><path fill="#ffffff" d="M 31.683594 21.035156 L 21.734375 31.738281 L 0.0742188 11.605469 L 10.027344 0.902344 Z M 31.683594 21.035156 " fill-opacity="1" fill-rule="nonzero"></path></g></g></g></g></g></g><g clip-path="url(#24992f71c5)"><g clip-path="url(#273ea86a40)"><g transform="matrix(1, 0, 0, 1, 7, 157)"><g clip-path="url(#1442735263)"><g clip-path="url(#0420471b82)"><g clip-path="url(#536d7caf7d)"><path fill="#0f172a" d="M 172.558594 137.339844 L 137.960938 171.9375 L 0.789062 34.765625 L 35.386719 0.167969 Z M 172.558594 137.339844 " fill-opacity="1" fill-rule="nonzero"></path></g></g></g></g></g></g><g clip-path="url(#b0dd684068)"><g clip-path="url(#5717f14cd3)"><g transform="matrix(1, 0, 0, 1, 204, 55)"><g clip-path="url(#4f1c0310e8)"><g clip-path="url(#e869d6dd33)"><g clip-path="url(#13607339d4)"><path fill="#0f172a" d="M 172.242188 136.128906 L 136.503906 171.867188 L 0.394531 35.757812 L 36.132812 0.0195312 Z M 172.242188 136.128906 " fill-opacity="1" fill-rule="nonzero"></path></g></g></g></g></g></g><g clip-path="url(#844ffaa0fa)"><g clip-path="url(#199cc729c1)"><g transform="matrix(1, 0, 0, 1, 204, 155)"><g clip-path="url(#3118d36807)"><g clip-path="url(#b335df3bb3)"><g clip-path="url(#1070b6f8e0)"><path fill="#0f172a" d="M 36.171875 172.789062 L 0.433594 137.050781 L 136.542969 0.941406 L 172.28125 36.679688 Z M 36.171875 172.789062 " fill-opacity="1" fill-rule="nonzero"></path></g></g></g></g></g></g></svg></g></g></svg></g><g id="dark-icon"><svg xmlns="http://www.w3.org/2000/svg" version="1.1" xmlns:xlink="http://www.w3.org/1999/xlink" width="1000" height="1000"><g><g transform="matrix(1.953125,0,0,1.953125,0,0)"><svg xmlns="http://www.w3.org/2000/svg" version="1" xmlns:xlink="http://www.w3.org/1999/xlink" width="512" zoomAndPan="magnify" viewBox="0 0 384 383.999986" height="512" preserveAspectRatio="xMidYMid meet"><defs><clipPath id="48e06ba9f1"><path d="M 7 55 L 180 55 L 180 228 L 7 228 Z M 7 55 " clip-rule="nonzero"></path></clipPath><clipPath id="36e8f36d9f"><path d="M 143.863281 55.847656 L 179.570312 91.554688 L 43.609375 227.515625 L 7.902344 191.808594 Z M 143.863281 55.847656 " clip-rule="nonzero"></path></clipPath><clipPath id="11ed95e2eb"><path d="M 0.679688 0.679688 L 172.761719 0.679688 L 172.761719 172.519531 L 0.679688 172.519531 Z M 0.679688 0.679688 " clip-rule="nonzero"></path></clipPath><clipPath id="d12a4e3886"><path d="M 136.863281 0.847656 L 172.570312 36.554688 L 36.609375 172.515625 L 0.902344 136.808594 Z M 136.863281 0.847656 " clip-rule="nonzero"></path></clipPath><clipPath id="b83a64bc57"><rect x="0" width="173" y="0" height="173"></rect></clipPath><clipPath id="f985cb3709"><path d="M 106 107 L 219 107 L 219 220 L 106 220 Z M 106 107 " clip-rule="nonzero"></path></clipPath><clipPath id="0130d28703"><path d="M 192.769531 107.003906 L 218.667969 132.898438 L 132.179688 219.386719 L 106.285156 193.492188 Z M 192.769531 107.003906 " clip-rule="nonzero"></path></clipPath><clipPath id="a33a4ee080"><path d="M 0.078125 0 L 112.878906 0 L 112.878906 112.601562 L 0.078125 112.601562 Z M 0.078125 0 " clip-rule="nonzero"></path></clipPath><clipPath id="46b05d1299"><path d="M 86.769531 0.00390625 L 112.667969 25.898438 L 26.179688 112.386719 L 0.285156 86.492188 Z M 86.769531 0.00390625 " clip-rule="nonzero"></path></clipPath><clipPath id="2440f640dd"><rect x="0" width="113" y="0" height="113"></rect></clipPath><clipPath id="19acdf2d4b"><path d="M 166 106 L 280 106 L 280 220 L 166 220 Z M 166 106 " clip-rule="nonzero"></path></clipPath><clipPath id="31e54fd44d"><path d="M 166.816406 132.890625 L 192.710938 106.996094 L 279.195312 193.484375 L 253.300781 219.378906 Z M 166.816406 132.890625 " clip-rule="nonzero"></path></clipPath><clipPath id="23bbbab5d4"><path d="M 0.800781 0.800781 L 113.359375 0.800781 L 113.359375 113.601562 L 0.800781 113.601562 Z M 0.800781 0.800781 " clip-rule="nonzero"></path></clipPath><clipPath id="18954c99b3"><path d="M 0.816406 26.890625 L 26.710938 0.996094 L 113.195312 87.484375 L 87.300781 113.378906 Z M 0.816406 26.890625 " clip-rule="nonzero"></path></clipPath><clipPath id="891e3a44a9"><rect x="0" width="114" y="0" height="114"></rect></clipPath><clipPath id="3a25382435"><path d="M 146 141 L 211 141 L 211 206 L 146 206 Z M 146 141 " clip-rule="nonzero"></path></clipPath><clipPath id="7e52266897"><path d="M 191.472656 141.011719 L 210.746094 160.28125 L 165.386719 205.640625 L 146.117188 186.367188 Z M 191.472656 141.011719 " clip-rule="nonzero"></path></clipPath><clipPath id="42a7975486"><path d="M 0 0 L 64.960938 0 L 64.960938 64.679688 L 0 64.679688 Z M 0 0 " clip-rule="nonzero"></path></clipPath><clipPath id="82cf9193e5"><path d="M 45.472656 0.0117188 L 64.746094 19.28125 L 19.386719 64.640625 L 0.117188 45.367188 Z M 45.472656 0.0117188 " clip-rule="nonzero"></path></clipPath><clipPath id="7a02593da4"><rect x="0" width="65" y="0" height="65"></rect></clipPath><clipPath id="eed785f165"><path d="M 174 138 L 241 138 L 241 205 L 174 205 Z M 174 138 " clip-rule="nonzero"></path></clipPath><clipPath id="259c24222c"><path d="M 174.734375 159.15625 L 195.027344 138.863281 L 240.386719 184.222656 L 220.09375 204.511719 Z M 174.734375 159.15625 " clip-rule="nonzero"></path></clipPath><clipPath id="896d3cd400"><path d="M 0.71875 0.71875 L 66.480469 0.71875 L 66.480469 66.71875 L 0.71875 66.71875 Z M 0.71875 0.71875 " clip-rule="nonzero"></path></clipPath><clipPath id="165431e40e"><path d="M 0.734375 21.15625 L 21.027344 0.863281 L 66.386719 46.222656 L 46.09375 66.511719 Z M 0.734375 21.15625 " clip-rule="nonzero"></path></clipPath><clipPath id="32815cc8b3"><rect x="0" width="67" y="0" height="67"></rect></clipPath><clipPath id="7de1684cd6"><path d="M 174 173 L 213 173 L 213 212 L 174 212 Z M 174 173 " clip-rule="nonzero"></path></clipPath><clipPath id="bbf61b941e"><path d="M 194.007812 173.328125 L 212.667969 191.984375 L 193.390625 211.261719 L 174.730469 192.605469 Z M 194.007812 173.328125 " clip-rule="nonzero"></path></clipPath><clipPath id="42c915a25c"><path d="M 0.71875 0.28125 L 38.878906 0.28125 L 38.878906 38.441406 L 0.71875 38.441406 Z M 0.71875 0.28125 " clip-rule="nonzero"></path></clipPath><clipPath id="fc9fbd8e53"><path d="M 20.007812 0.328125 L 38.667969 18.984375 L 19.390625 38.261719 L 0.730469 19.605469 Z M 20.007812 0.328125 " clip-rule="nonzero"></path></clipPath><clipPath id="bbee31934a"><rect x="0" width="39" y="0" height="39"></rect></clipPath><clipPath id="d61db754be"><path d="M 171 129 L 202 129 L 202 161 L 171 161 Z M 171 129 " clip-rule="nonzero"></path></clipPath><clipPath id="9c1b50c6d1"><path d="M 191.316406 129.984375 L 201.203125 139.359375 L 180.886719 160.777344 L 171.003906 151.398438 Z M 191.316406 129.984375 " clip-rule="nonzero"></path></clipPath><clipPath id="91e4413c6e"><path d="M 0 0.839844 L 30.359375 0.839844 L 30.359375 31.800781 L 0 31.800781 Z M 0 0.839844 " clip-rule="nonzero"></path></clipPath><clipPath id="5c02f33c09"><path d="M 20.316406 0.984375 L 30.203125 10.359375 L 9.886719 31.777344 L 0.00390625 22.398438 Z M 20.316406 0.984375 " clip-rule="nonzero"></path></clipPath><clipPath id="94b717b972"><rect x="0" width="31" y="0" height="32"></rect></clipPath><clipPath id="3f82c08742"><path d="M 181 129 L 213 129 L 213 161 L 181 161 Z M 181 129 " clip-rule="nonzero"></path></clipPath><clipPath id="a65bf5f278"><path d="M 212.667969 150.074219 L 202.726562 160.765625 L 181.105469 140.667969 L 191.050781 129.976562 Z M 212.667969 150.074219 " clip-rule="nonzero"></path></clipPath><clipPath id="fd9d9529b8"><path d="M 0 0.839844 L 31.878906 0.839844 L 31.878906 31.800781 L 0 31.800781 Z M 0 0.839844 " clip-rule="nonzero"></path></clipPath><clipPath id="d7e3afaf83"><path d="M 31.667969 21.074219 L 21.726562 31.765625 L 0.105469 11.667969 L 10.050781 0.976562 Z M 31.667969 21.074219 " clip-rule="nonzero"></path></clipPath><clipPath id="4c93beb1c3"><rect x="0" width="32" y="0" height="32"></rect></clipPath><clipPath id="bf3d7a560d"><path d="M 7 157 L 180 157 L 180 329 L 7 329 Z M 7 157 " clip-rule="nonzero"></path></clipPath><clipPath id="9de5e531bc"><path d="M 179.566406 294.257812 L 145 328.824219 L 7.898438 191.722656 L 42.464844 157.15625 Z M 179.566406 294.257812 " clip-rule="nonzero"></path></clipPath><clipPath id="47aea941f4"><path d="M 0.679688 0 L 172.761719 0 L 172.761719 172 L 0.679688 172 Z M 0.679688 0 " clip-rule="nonzero"></path></clipPath><clipPath id="8d3e62588e"><path d="M 172.566406 137.257812 L 138 171.824219 L 0.898438 34.722656 L 35.464844 0.15625 Z M 172.566406 137.257812 " clip-rule="nonzero"></path></clipPath><clipPath id="35be1c68b7"><rect x="0" width="173" y="0" height="172"></rect></clipPath><clipPath id="7c0cd5a3c1"><path d="M 204 55 L 377 55 L 377 227 L 204 227 Z M 204 55 " clip-rule="nonzero"></path></clipPath><clipPath id="0bf8e131e2"><path d="M 376.089844 191.128906 L 340.382812 226.835938 L 204.421875 90.871094 L 240.128906 55.164062 Z M 376.089844 191.128906 " clip-rule="nonzero"></path></clipPath><clipPath id="8794f7f54e"><path d="M 0.238281 0 L 172.320312 0 L 172.320312 172 L 0.238281 172 Z M 0.238281 0 " clip-rule="nonzero"></path></clipPath><clipPath id="39dfa6fd05"><path d="M 172.089844 136.128906 L 136.382812 171.835938 L 0.421875 35.871094 L 36.128906 0.164062 Z M 172.089844 136.128906 " clip-rule="nonzero"></path></clipPath><clipPath id="52d5074177"><rect x="0" width="173" y="0" height="172"></rect></clipPath><clipPath id="a5c26da310"><path d="M 204 156 L 377 156 L 377 328 L 204 328 Z M 204 156 " clip-rule="nonzero"></path></clipPath><clipPath id="ba3d7b3dfc"><path d="M 240.136719 327.675781 L 204.429688 291.96875 L 340.390625 156.007812 L 376.097656 191.714844 Z M 240.136719 327.675781 " clip-rule="nonzero"></path></clipPath><clipPath id="a79a3ca0d2"><path d="M 0.238281 0 L 172.320312 0 L 172.320312 171.839844 L 0.238281 171.839844 Z M 0.238281 0 " clip-rule="nonzero"></path></clipPath><clipPath id="cadd799363"><path d="M 36.136719 171.675781 L 0.429688 135.96875 L 136.390625 0.0078125 L 172.097656 35.714844 Z M 36.136719 171.675781 " clip-rule="nonzero"></path></clipPath><clipPath id="a6a0d90fb5"><rect x="0" width="173" y="0" height="172"></rect></clipPath></defs><g clip-path="url(#48e06ba9f1)"><g clip-path="url(#36e8f36d9f)"><g transform="matrix(1, 0, 0, 1, 7, 55)"><g clip-path="url(#b83a64bc57)"><g clip-path="url(#11ed95e2eb)"><g clip-path="url(#d12a4e3886)"><path fill="#ffffff" d="M 136.863281 0.847656 L 172.570312 36.554688 L 36.578125 172.546875 L 0.871094 136.839844 Z M 136.863281 0.847656 " fill-opacity="1" fill-rule="nonzero"></path></g></g></g></g></g></g><g clip-path="url(#f985cb3709)"><g clip-path="url(#0130d28703)"><g transform="matrix(1, 0, 0, 1, 106, 107)"><g clip-path="url(#2440f640dd)"><g clip-path="url(#a33a4ee080)"><g clip-path="url(#46b05d1299)"><path fill="#ffffff" d="M 86.769531 0.00390625 L 112.667969 25.898438 L 26.183594 112.382812 L 0.289062 86.488281 Z M 86.769531 0.00390625 " fill-opacity="1" fill-rule="nonzero"></path></g></g></g></g></g></g><g clip-path="url(#19acdf2d4b)"><g clip-path="url(#31e54fd44d)"><g transform="matrix(1, 0, 0, 1, 166, 106)"><g clip-path="url(#891e3a44a9)"><g clip-path="url(#23bbbab5d4)"><g clip-path="url(#18954c99b3)"><path fill="#ffffff" d="M 0.816406 26.890625 L 26.710938 0.996094 L 113.195312 87.480469 L 87.300781 113.375 Z M 0.816406 26.890625 " fill-opacity="1" fill-rule="nonzero"></path></g></g></g></g></g></g><g clip-path="url(#3a25382435)"><g clip-path="url(#7e52266897)"><g transform="matrix(1, 0, 0, 1, 146, 141)"><g clip-path="url(#7a02593da4)"><g clip-path="url(#42a7975486)"><g clip-path="url(#82cf9193e5)"><path fill="#ffffff" d="M 45.472656 0.0117188 L 64.746094 19.28125 L 19.351562 64.675781 L 0.0820312 45.402344 Z M 45.472656 0.0117188 " fill-opacity="1" fill-rule="nonzero"></path></g></g></g></g></g></g><g clip-path="url(#eed785f165)"><g clip-path="url(#259c24222c)"><g transform="matrix(1, 0, 0, 1, 174, 138)"><g clip-path="url(#32815cc8b3)"><g clip-path="url(#896d3cd400)"><g clip-path="url(#165431e40e)"><path fill="#ffffff" d="M 0.734375 21.15625 L 21.027344 0.863281 L 66.367188 46.203125 L 46.078125 66.496094 Z M 0.734375 21.15625 " fill-opacity="1" fill-rule="nonzero"></path></g></g></g></g></g></g><g clip-path="url(#7de1684cd6)"><g clip-path="url(#bbf61b941e)"><g transform="matrix(1, 0, 0, 1, 174, 173)"><g clip-path="url(#bbee31934a)"><g clip-path="url(#42c915a25c)"><g clip-path="url(#fc9fbd8e53)"><path fill="#ffffff" d="M 20.007812 0.328125 L 38.667969 18.984375 L 19.425781 38.226562 L 0.765625 19.570312 Z M 20.007812 0.328125 " fill-opacity="1" fill-rule="nonzero"></path></g></g></g></g></g></g><g clip-path="url(#d61db754be)"><g clip-path="url(#9c1b50c6d1)"><g transform="matrix(1, 0, 0, 1, 171, 129)"><g clip-path="url(#94b717b972)"><g clip-path="url(#91e4413c6e)"><g clip-path="url(#5c02f33c09)"><path fill="#0f172a" d="M 20.316406 0.984375 L 30.203125 10.359375 L 9.875 31.789062 L -0.0078125 22.414062 Z M 20.316406 0.984375 " fill-opacity="1" fill-rule="nonzero"></path></g></g></g></g></g></g><g clip-path="url(#3f82c08742)"><g clip-path="url(#a65bf5f278)"><g transform="matrix(1, 0, 0, 1, 181, 129)"><g clip-path="url(#4c93beb1c3)"><g clip-path="url(#fd9d9529b8)"><g clip-path="url(#d7e3afaf83)"><path fill="#0f172a" d="M 31.667969 21.074219 L 21.726562 31.765625 L 0.0859375 11.648438 L 10.027344 0.957031 Z M 31.667969 21.074219 " fill-opacity="1" fill-rule="nonzero"></path></g></g></g></g></g></g><g clip-path="url(#bf3d7a560d)"><g clip-path="url(#9de5e531bc)"><g transform="matrix(1, 0, 0, 1, 7, 157)"><g clip-path="url(#35be1c68b7)"><g clip-path="url(#47aea941f4)"><g clip-path="url(#8d3e62588e)"><path fill="#ffffff" d="M 172.566406 137.257812 L 138 171.824219 L 0.941406 34.769531 L 35.511719 0.199219 Z M 172.566406 137.257812 " fill-opacity="1" fill-rule="nonzero"></path></g></g></g></g></g></g><g clip-path="url(#7c0cd5a3c1)"><g clip-path="url(#0bf8e131e2)"><g transform="matrix(1, 0, 0, 1, 204, 55)"><g clip-path="url(#52d5074177)"><g clip-path="url(#8794f7f54e)"><g clip-path="url(#39dfa6fd05)"><path fill="#ffffff" d="M 172.089844 136.128906 L 136.382812 171.835938 L 0.390625 35.84375 L 36.097656 0.136719 Z M 172.089844 136.128906 " fill-opacity="1" fill-rule="nonzero"></path></g></g></g></g></g></g><g clip-path="url(#a5c26da310)"><g clip-path="url(#ba3d7b3dfc)"><g transform="matrix(1, 0, 0, 1, 204, 156)"><g clip-path="url(#a6a0d90fb5)"><g clip-path="url(#a79a3ca0d2)"><g clip-path="url(#cadd799363)"><path fill="#ffffff" d="M 36.136719 171.675781 L 0.429688 135.96875 L 136.421875 -0.0234375 L 172.128906 35.683594 Z M 36.136719 171.675781 " fill-opacity="1" fill-rule="nonzero"></path></g></g></g></g></g></g></svg></g></g></svg></g></svg>